{
  "accessors": [
    {
      "bufferView": 2,
      "componentType": 5126,
      "count": 608,
      "max": [
        1.000420093536377,
        1.000420093536377,
        0.0
      ],
      "min": [
        -1.000420093536377,
        -1.000420093536377,
        -1.55001699924469
      ],
      "type": "VEC3"
    },
    {
      "bufferView": 2,
      "byteOffset": 7296,
      "componentType": 5126,
      "count": 608,
      "max": [
        1.0,
        1.0,
        1.0
      ],
      "min": [
        -1.0,
        -1.0,
        -0.6857142448425293
      ],
      "type": "VEC3"
    },
    {
      "bufferView": 1,
      "componentType": 5126,
      "count": 608,
      "max": [
        0.0,
        0.0
      ],
      "min": [
        0.0,
        0.0
      ],
      "type": "VEC2"
    },
    {
      "bufferView": 0,
      "componentType": 5125,
      "count": 3636,
      "type": "SCALAR"
    },
    {
      "bufferView": 2,
      "byteOffset": 14592,
      "componentType": 5126,
      "count": 544,
      "max": [
        0.9672592282295227,
        0.9672592282295227,
        2.9233438968658447
      ],
      "min": [
        -0.9672592282295227,
        -0.9672592282295227,
        -0.0035255062393844128
      ],
      "type": "VEC3"
    },
    {
      "bufferView": 2,
      "byteOffset": 21120,
      "componentType": 5126,
      "count": 544,
      "max": [
        0.9843401312828064,
        0.9843401312828064,
        0.8002452850341797
      ],
      "min": [
        -0.9843401312828064,
        -0.9843401312828064,
        -0.8416014909744263
      ],
      "type": "VEC3"
    },
    {
      "bufferView": 1,
      "byteOffset": 4864,
      "componentType": 5126,
      "count": 544,
      "max": [
        0.0,
        0.0
      ],
      "min": [
        0.0,
        0.0
      ],
      "type": "VEC2"
    },
    {
      "bufferView": 0,
      "byteOffset": 14544,
      "componentType": 5125,
      "count": 3264,
      "type": "SCALAR"
    },
    {
      "bufferView": 2,
      "byteOffset": 27648,
      "componentType": 5126,
      "count": 320,
      "max": [
        0.46478158235549927,
        0.46478158235549927,
        3.4283080101013184
      ],
      "min": [
        -0.46478158235549927,
        -0.46478158235549927,
        2.9233438968658447
      ],
      "type": "VEC3"
    },
    {
      "bufferView": 2,
      "byteOffset": 31488,
      "componentType": 5126,
      "count": 320,
      "max": [
        0.9746354222297668,
        0.9746354222297668,
        1.0
      ],
      "min": [
        -0.9746354222297668,
        -0.9746354222297668,
        -1.0
      ],
      "type": "VEC3"
    },
    {
      "bufferView": 1,
      "byteOffset": 9216,
      "componentType": 5126,
      "count": 320,
      "max": [
        0.0,
        0.0
      ],
      "min": [
        0.0,
        0.0
      ],
      "type": "VEC2"
    },
    {
      "bufferView": 0,
      "byteOffset": 27600,
      "componentType": 5125,
      "count": 1908,
      "type": "SCALAR"
    },
    {
      "bufferView": 2,
      "byteOffset": 35328,
      "componentType": 5126,
      "count": 6382,
      "max": [
        2.9976327419281006,
        3.894841432571411,
        0.8780993223190308
      ],
      "min": [
        -4.726714134216309,
        -6.128734588623047,
        -23.512371063232422
      ],
      "type": "VEC3"
    },
    {
      "bufferView": 2,
      "byteOffset": 111912,
      "componentType": 5126,
      "count": 6382,
      "max": [
        0.9999278783798218,
        0.9999525547027588,
        0.9999470710754395
      ],
      "min": [
        -0.9982258081436157,
        -0.9996578693389893,
        -0.9993689060211182
      ],
      "type": "VEC3"
    },
    {
      "bufferView": 1,
      "byteOffset": 11776,
      "componentType": 5126,
      "count": 6382,
      "max": [
        1.0,
        0.47238200902938843
      ],
      "min": [
        0.0,
        0.0
      ],
      "type": "VEC2"
    },
    {
      "bufferView": 0,
      "byteOffset": 35232,
      "componentType": 5125,
      "count": 34560,
      "type": "SCALAR"
    },
    {
      "bufferView": 2,
      "byteOffset": 188496,
      "componentType": 5126,
      "count": 96,
      "max": [
        0.3475501537322998,
        0.3475501239299774,
        -1.0369691848754883
      ],
      "min": [
        -0.3475501537322998,
        -0.3475501835346222,
        -1.417956829071045
      ],
      "type": "VEC3"
    },
    {
      "bufferView": 2,
      "byteOffset": 189648,
      "componentType": 5126,
      "count": 96,
      "max": [
        0.9681077599525452,
        0.9681077599525452,
        0.8500281572341919
      ],
      "min": [
        -0.9681077599525452,
        -0.9681077599525452,
        -0.6857142448425293
      ],
      "type": "VEC3"
    },
    {
      "bufferView": 1,
      "byteOffset": 62832,
      "componentType": 5126,
      "count": 96,
      "max": [
        0.0,
        0.0
      ],
      "min": [
        0.0,
        0.0
      ],
      "type": "VEC2"
    },
    {
      "bufferView": 0,
      "byteOffset": 173472,
      "componentType": 5125,
      "count": 564,
      "type": "SCALAR"
    }
  ],
  "asset": {
    "extras": {
      "author": "lilvenombeats (https://sketchfab.com/lilvenombeats)",
      "license": "CC-BY-4.0 (http://creativecommons.org/licenses/by/4.0/)",
      "source": "https://sketchfab.com/3d-models/lava-lamp-3bede7bb8ad24840847abeb3cb50c4c4",
      "title": "Lava Lamp"
    },
    "generator": "Sketchfab-12.78.0",
    "version": "2.0"
  },
  "bufferViews": [
    {
      "buffer": 0,
      "byteLength": 175728,
      "name": "floatBufferViews",
      "target": 34963
    },
    {
      "buffer": 0,
      "byteLength": 63600,
      "byteOffset": 175728,
      "byteStride": 8,
      "name": "floatBufferViews",
      "target": 34962
    },
    {
      "buffer": 0,
      "byteLength": 190800,
      "byteOffset": 239328,
      "byteStride": 12,
      "name": "floatBufferViews",
      "target": 34962
    }
  ],
  "buffers": [
    {
      "byteLength": 430128,
      "uri": "scene.bin"
    }
  ],
  "extensionsUsed": [
    "KHR_materials_transmission"
  ],
  "materials": [
    {
      "doubleSided": true,
      "name": "Lamp",
      "pbrMetallicRoughness": {
        "baseColorFactor": [
          0.8,
          0.8,
          0.8,
          1.0
        ],
        "roughnessFactor": 0.16645894043698972
      }
    },
    {
      "alphaMode": "BLEND",
      "doubleSided": true,
      "extensions": {
        "KHR_materials_transmission": {
          "transmissionFactor": 0.5555308822707344
        }
      },
      "name": "Glass",
      "pbrMetallicRoughness": {
        "baseColorFactor": [
          0.013175640759342223,
          0.24261674508224598,
          0.2550824165025381,
          0.44446911772926556
        ],
        "metallicFactor": 0.0,
        "roughnessFactor": 0.0448739586139445
      }
    },
    {
      "doubleSided": true,
      "emissiveFactor": [
        0.08566680000000006,
        1.0,
        1.0
      ],
      "name": "Lava",
      "pbrMetallicRoughness": {
        "baseColorFactor": [
          0.11522,
          0.586355,
          0.8,
          1.0
        ],
        "metallicFactor": 0.0,
        "roughnessFactor": 0.8878350584491461
      }
    },
    {
      "doubleSided": true,
      "emissiveFactor": [
        0.0,
        1.0,
        1.0
      ],
      "name": "light",
      "pbrMetallicRoughness": {
        "baseColorFactor": [
          0.0,
          1.0,
          0.8328297573068215,
          1.0
        ],
        "metallicFactor": 0.0,
        "roughnessFactor": 0.8211145618000169
      }
    }
  ],
  "meshes": [
    {
      "name": "Circle_Lamp_0",
      "primitives": [
        {
          "attributes": {
            "NORMAL": 1,
            "POSITION": 0,
            "TEXCOORD_0": 2
          },
          "indices": 3,
          "material": 0,
          "mode": 4
        }
      ]
    },
    {
      "name": "Circle.001_Glass_0",
      "primitives": [
        {
          "attributes": {
            "NORMAL": 5,
            "POSITION": 4,
            "TEXCOORD_0": 6
          },
          "indices": 7,
          "material": 1,
          "mode": 4
        }
      ]
    },
    {
      "name": "Circle.002_Lamp_0",
      "primitives": [
        {
          "attributes": {
            "NORMAL": 9,
            "POSITION": 8,
            "TEXCOORD_0": 10
          },
          "indices": 11,
          "material": 0,
          "mode": 4
        }
      ]
    },
    {
      "name": "Icosphere.004_Lava_0",
      "primitives": [
        {
          "attributes": {
            "NORMAL": 13,
            "POSITION": 12,
            "TEXCOORD_0": 14
          },
          "indices": 15,
          "material": 2,
          "mode": 4
        }
      ]
    },
    {
      "name": "Circle.003_light_0",
      "primitives": [
        {
          "attributes": {
            "NORMAL": 17,
            "POSITION": 16,
            "TEXCOORD_0": 18
          },
          "indices": 19,
          "material": 3,
          "mode": 4
        }
      ]
    }
  ],
  "nodes": [
    {
      "children": [
        1
      ],
      "matrix": [
        1.0,
        0.0,
        0.0,
        0.0,
        0.0,
        2.220446049250313e-16,
        -1.0,
        0.0,
        0.0,
        1.0,
        2.220446049250313e-16,
        0.0,
        0.0,
        0.0,
        0.0,
        1.0
      ],
      "name": "Sketchfab_model"
    },
    {
      "children": [
        2
      ],
      "matrix": [
        0.009999999776482582,
        0.0,
        0.0,
        0.0,
        0.0,
        0.0,
        0.009999999776482582,
        0.0,
        0.0,
        -0.009999999776482582,
        0.0,
        0.0,
        0.0,
        0.0,
        0.0,
        1.0
      ],
      "name": "ed5d6e0d2dcf48d2bd1fa75bb23d0fca.fbx"
    },
    {
      "children": [
        3,
        5,
        7,
        9,
        11,
        13
      ],
      "name": "RootNode"
    },
    {
      "children": [
        4
      ],
      "matrix": [
        163.7787628173828,
        0.0,
        0.0,
        0.0,
        0.0,
        -2.6682947308161625e-05,
        -163.77876281738065,
        0.0,
        0.0,
        163.77876281738065,
        -2.6682947308161625e-05,
        0.0,
        0.0,
        167.63845825195313,
        0.0,
        1.0
      ],
      "name": "Circle"
    },
    {
      "mesh": 0,
      "name": "Circle_Lamp_0"
    },
    {
      "children": [
        6
      ],
      "matrix": [
        163.7787628173828,
        0.0,
        0.0,
        0.0,
        0.0,
        -2.6682947308161625e-05,
        -163.77876281738065,
        0.0,
        0.0,
        163.77876281738065,
        -2.6682947308161625e-05,
        0.0,
        0.0,
        167.63845825195313,
        0.0,
        1.0
      ],
      "name": "Circle.001"
    },
    {
      "mesh": 1,
      "name": "Circle.001_Glass_0"
    },
    {
      "children": [
        8
      ],
      "matrix": [
        163.7787628173828,
        0.0,
        0.0,
        0.0,
        0.0,
        -2.6682947308161625e-05,
        -163.77876281738065,
        0.0,
        0.0,
        163.77876281738065,
        -2.6682947308161625e-05,
        0.0,
        0.0,
        167.63845825195313,
        0.0,
        1.0
      ],
      "name": "Circle.002"
    },
    {
      "mesh": 2,
      "name": "Circle.002_Lamp_0"
    },
    {
      "children": [
        10
      ],
      "matrix": [
        17.597381809359895,
        1.8221897014918325,
        14.846661883690912,
        0.0,
        14.46644226030015,
        3.7555609873019873,
        -17.60765177249116,
        0.0,
        -3.8033922656314796,
        22.71534673527319,
        1.7201223535848298,
        0.0,
        -10.421856880187988,
        608.6605834960938,
        18.66942024230957,
        1.0
      ],
      "name": "Icosphere.004"
    },
    {
      "mesh": 3,
      "name": "Icosphere.004_Lava_0"
    },
    {
      "children": [
        12
      ],
      "matrix": [
        163.7787628173828,
        0.0,
        0.0,
        0.0,
        0.0,
        -2.6682947308161625e-05,
        -163.77876281738065,
        0.0,
        0.0,
        163.77876281738065,
        -2.6682947308161625e-05,
        0.0,
        0.0,
        167.63845825195313,
        0.0,
        1.0
      ],
      "name": "Circle.003"
    },
    {
      "mesh": 4,
      "name": "Circle.003_light_0"
    },
    {
      "children": [
        14
      ],
      "matrix": [
        -99.99999999999243,
        3.8941437731121185e-05,
        1.1746023567042827e-12,
        0.0,
        -3.894143773111928e-05,
        -99.9999999999865,
        -3.442155787070012e-05,
        0.0,
        -1.2229647167596404e-11,
        -3.442155787069797e-05,
        99.99999999999407,
        0.0,
        0.0,
        -30.155065536499023,
        0.0,
        1.0
      ],
      "name": "Spot"
    },
    {
      "children": [
        15
      ],
      "matrix": [
        1.0,
        0.0,
        0.0,
        0.0,
        0.0,
        2.220446049250313e-16,
        1.0,
        0.0,
        0.0,
        -1.0,
        2.220446049250313e-16,
        0.0,
        0.0,
        0.0,
        0.0,
        1.0
      ],
      "name": "Object_14"
    },
    {
      "name": "Object_15"
    }
  ],
  "scene": 0,
  "scenes": [
    {
      "name": "Sketchfab_Scene",
      "nodes": [
        0
      ]
    }
  ]
}
