{
  "accessors": [
    {
      "bufferView": 2,
      "componentType": 5126,
      "count": 1776,
      "max": [
        13.078250885009766,
        -0.005606731399893761,
        5.971419811248779
      ],
      "min": [
        -13.078248023986816,
        -26.22639274597168,
        -16.22835922241211
      ],
      "type": "VEC3"
    },
    {
      "bufferView": 2,
      "byteOffset": 21312,
      "componentType": 5126,
      "count": 1776,
      "max": [
        0.9999942183494568,
        0.999989926815033,
        0.9999998807907104
      ],
      "min": [
        -0.9999940991401672,
        -0.9999940991401672,
        -0.9807170629501343
      ],
      "type": "VEC3"
    },
    {
      "bufferView": 1,
      "componentType": 5126,
      "count": 1776,
      "max": [
        805.0272216796875,
        560.6642456054688
      ],
      "min": [
        -805.0281982421875,
        -1190.782958984375
      ],
      "type": "VEC2"
    },
    {
      "bufferView": 0,
      "componentType": 5125,
      "count": 3084,
      "type": "SCALAR"
    },
    {
      "bufferView": 2,
      "byteOffset": 42624,
      "componentType": 5126,
      "count": 865,
      "max": [
        12.498739242553711,
        -0.7456474900245667,
        -15.360856056213379
      ],
      "min": [
        -12.322417259216309,
        -25.566802978515625,
        -17.30937957763672
      ],
      "type": "VEC3"
    },
    {
      "bufferView": 2,
      "byteOffset": 53004,
      "componentType": 5126,
      "count": 865,
      "max": [
        0.9920741319656372,
        0.9512779712677002,
        -0.1105121448636055
      ],
      "min": [
        -0.951278030872345,
        -0.9512783885002136,
        -0.9999796748161316
      ],
      "type": "VEC3"
    },
    {
      "bufferView": 1,
      "byteOffset": 14208,
      "componentType": 5126,
      "count": 865,
      "max": [
        651.4151000976563,
        693.4873046875
      ],
      "min": [
        0.03362134099006653,
        -428.1402282714844
      ],
      "type": "VEC2"
    },
    {
      "bufferView": 0,
      "byteOffset": 12336,
      "componentType": 5125,
      "count": 4458,
      "type": "SCALAR"
    },
    {
      "bufferView": 2,
      "byteOffset": 63384,
      "componentType": 5126,
      "count": 6168,
      "max": [
        10.661423683166504,
        9.220952987670898,
        12.642085075378418
      ],
      "min": [
        -11.817959785461426,
        -15.63646125793457,
        -14.805768966674805
      ],
      "type": "VEC3"
    },
    {
      "bufferView": 2,
      "byteOffset": 137400,
      "componentType": 5126,
      "count": 6168,
      "max": [
        0.9999608397483826,
        0.998932421207428,
        0.9999551773071289
      ],
      "min": [
        -0.9985172748565674,
        -0.9996500015258789,
        -0.8491129279136658
      ],
      "type": "VEC3"
    },
    {
      "bufferView": 1,
      "byteOffset": 21128,
      "componentType": 5126,
      "count": 6168,
      "max": [
        0.9496337175369263,
        0.4953642189502716
      ],
      "min": [
        0.12091530859470367,
        0.02395501732826233
      ],
      "type": "VEC2"
    },
    {
      "bufferView": 0,
      "byteOffset": 30168,
      "componentType": 5125,
      "count": 25452,
      "type": "SCALAR"
    },
    {
      "bufferView": 2,
      "byteOffset": 211416,
      "componentType": 5126,
      "count": 10988,
      "max": [
        10.721485137939453,
        9.283432006835938,
        12.662592887878418
      ],
      "min": [
        -11.86092758178711,
        -15.670000076293945,
        -14.848154067993164
      ],
      "type": "VEC3"
    },
    {
      "bufferView": 2,
      "byteOffset": 343272,
      "componentType": 5126,
      "count": 10988,
      "max": [
        0.9999608397483826,
        0.9999256134033203,
        0.9999551773071289
      ],
      "min": [
        -0.9997465014457703,
        -0.9998269081115723,
        -0.9990592002868652
      ],
      "type": "VEC3"
    },
    {
      "bufferView": 1,
      "byteOffset": 70472,
      "componentType": 5126,
      "count": 10988,
      "max": [
        511.6593933105469,
        265.9589538574219
      ],
      "min": [
        -496.9653625488281,
        -311.85345458984375
      ],
      "type": "VEC2"
    },
    {
      "bufferView": 0,
      "byteOffset": 131976,
      "componentType": 5125,
      "count": 34638,
      "type": "SCALAR"
    },
    {
      "bufferView": 2,
      "byteOffset": 475128,
      "componentType": 5126,
      "count": 2886,
      "max": [
        10.61266040802002,
        9.176025390625,
        23.19699478149414
      ],
      "min": [
        -11.54682731628418,
        -15.411840438842773,
        -14.2757568359375
      ],
      "type": "VEC3"
    },
    {
      "bufferView": 2,
      "byteOffset": 509760,
      "componentType": 5126,
      "count": 2886,
      "max": [
        0.999295711517334,
        0.9992967844009399,
        0.9931616187095642
      ],
      "min": [
        -0.9997020363807678,
        -0.9985374808311462,
        -0.9998113512992859
      ],
      "type": "VEC3"
    },
    {
      "bufferView": 1,
      "byteOffset": 158376,
      "componentType": 5126,
      "count": 2886,
      "max": [
        857.2208251953125,
        31.311758041381836
      ],
      "min": [
        -789.6009521484375,
        -44.05780029296875
      ],
      "type": "VEC2"
    },
    {
      "bufferView": 0,
      "byteOffset": 270528,
      "componentType": 5125,
      "count": 9432,
      "type": "SCALAR"
    }
  ],
  "asset": {
    "extras": {
      "author": "GobyDiputra (https://sketchfab.com/GobyDiputra)",
      "license": "SKETCHFAB Standard (https://sketchfab.com/licenses)",
      "source": "https://sketchfab.com/3d-models/banana-plant-with-pot-789d665f88704393af11a1b64956d474",
      "title": "Banana Plant With Pot"
    },
    "generator": "Sketchfab-16.8.0",
    "version": "2.0"
  },
  "bufferViews": [
    {
      "buffer": 0,
      "byteLength": 308256,
      "name": "floatBufferViews",
      "target": 34963
    },
    {
      "buffer": 0,
      "byteLength": 181464,
      "byteOffset": 308256,
      "byteStride": 8,
      "name": "floatBufferViews",
      "target": 34962
    },
    {
      "buffer": 0,
      "byteLength": 544392,
      "byteOffset": 489720,
      "byteStride": 12,
      "name": "floatBufferViews",
      "target": 34962
    }
  ],
  "buffers": [
    {
      "byteLength": 1034112,
      "uri": "scene.bin"
    }
  ],
  "images": [
    {
      "uri": "textures/material_baseColor.jpeg"
    },
    {
      "uri": "textures/material_1_baseColor.jpeg"
    },
    {
      "uri": "textures/material_2_baseColor.jpeg"
    },
    {
      "uri": "textures/material_3_baseColor.jpeg"
    },
    {
      "uri": "textures/material_4_baseColor.jpeg"
    }
  ],
  "materials": [
    {
      "doubleSided": true,
      "name": "material",
      "pbrMetallicRoughness": {
        "baseColorTexture": {
          "index": 0
        },
        "metallicFactor": 0.0,
        "roughnessFactor": 0.5
      }
    },
    {
      "doubleSided": true,
      "name": "material_1",
      "pbrMetallicRoughness": {
        "baseColorTexture": {
          "index": 1
        },
        "metallicFactor": 0.0,
        "roughnessFactor": 0.5
      }
    },
    {
      "doubleSided": true,
      "name": "material_2",
      "pbrMetallicRoughness": {
        "baseColorTexture": {
          "index": 2
        },
        "metallicFactor": 0.0,
        "roughnessFactor": 0.5
      }
    },
    {
      "doubleSided": true,
      "name": "material_3",
      "pbrMetallicRoughness": {
        "baseColorTexture": {
          "index": 3
        },
        "metallicFactor": 0.0,
        "roughnessFactor": 0.5
      }
    },
    {
      "doubleSided": true,
      "name": "material_4",
      "pbrMetallicRoughness": {
        "baseColorTexture": {
          "index": 4
        },
        "metallicFactor": 0.0,
        "roughnessFactor": 0.5
      }
    }
  ],
  "meshes": [
    {
      "name": "Object_0",
      "primitives": [
        {
          "attributes": {
            "NORMAL": 1,
            "POSITION": 0,
            "TEXCOORD_0": 2
          },
          "indices": 3,
          "material": 0,
          "mode": 4
        }
      ]
    },
    {
      "name": "Object_1",
      "primitives": [
        {
          "attributes": {
            "NORMAL": 5,
            "POSITION": 4,
            "TEXCOORD_0": 6
          },
          "indices": 7,
          "material": 1,
          "mode": 4
        }
      ]
    },
    {
      "name": "Object_2",
      "primitives": [
        {
          "attributes": {
            "NORMAL": 9,
            "POSITION": 8,
            "TEXCOORD_0": 10
          },
          "indices": 11,
          "material": 2,
          "mode": 4
        }
      ]
    },
    {
      "name": "Object_3",
      "primitives": [
        {
          "attributes": {
            "NORMAL": 13,
            "POSITION": 12,
            "TEXCOORD_0": 14
          },
          "indices": 15,
          "material": 3,
          "mode": 4
        }
      ]
    },
    {
      "name": "Object_4",
      "primitives": [
        {
          "attributes": {
            "NORMAL": 17,
            "POSITION": 16,
            "TEXCOORD_0": 18
          },
          "indices": 19,
          "material": 4,
          "mode": 4
        }
      ]
    }
  ],
  "nodes": [
    {
      "children": [
        1
      ],
      "matrix": [
        1.0,
        0.0,
        0.0,
        0.0,
        0.0,
        2.220446049250313e-16,
        -1.0,
        0.0,
        0.0,
        1.0,
        2.220446049250313e-16,
        0.0,
        0.0,
        0.0,
        0.0,
        1.0
      ],
      "name": "Sketchfab_model"
    },
    {
      "children": [
        2
      ],
      "name": "root"
    },
    {
      "children": [
        3
      ],
      "matrix": [
        1.0,
        0.0,
        0.0,
        0.0,
        0.0,
        2.220446049250313e-16,
        1.0,
        0.0,
        0.0,
        -1.0,
        2.220446049250313e-16,
        0.0,
        0.0,
        0.0,
        0.0,
        1.0
      ],
      "name": "GLTF_SceneRootNode"
    },
    {
      "children": [
        4,
        7
      ],
      "matrix": [
        1.8489232063293457,
        0.0,
        0.0,
        0.0,
        0.0,
        1.8489232063293457,
        0.0,
        0.0,
        0.0,
        0.0,
        1.8489232063293457,
        0.0,
        0.0042309947311878204,
        0.00047575030475854874,
        -0.00605517253279686,
        1.0
      ],
      "name": "Empty.003_2"
    },
    {
      "children": [
        5,
        6
      ],
      "matrix": [
        -0.010348400479317113,
        1.4120529653962931e-11,
        0.00045181713801147006,
        -0.0,
        0.00045181713801129757,
        -8.733746003775395e-09,
        0.010348400479313435,
        -0.0,
        -3.950645199646241e-10,
        -0.010358258150514258,
        -8.724816843609175e-09,
        -0.0,
        0.009128770790994167,
        0.0615960955619812,
        0.13644817471504211,
        1.0
      ],
      "name": "G-AUL10_0"
    },
    {
      "mesh": 0,
      "name": "Object_5"
    },
    {
      "mesh": 1,
      "name": "Object_6"
    },
    {
      "children": [
        8,
        9,
        10
      ],
      "matrix": [
        0.007621842834789032,
        -0.004655525962558067,
        -0.02209387576484998,
        -0.0,
        -0.022530104245073554,
        -0.0004509842386568963,
        -0.0076773014649357905,
        -0.0,
        -0.0011079777577987953,
        -0.02391040576285005,
        0.0046560722783425415,
        -0.0,
        -0.030428823083639145,
        0.6726057529449463,
        -0.06887105107307434,
        1.0
      ],
      "name": "G-AUL11_1"
    },
    {
      "mesh": 2,
      "name": "Object_8"
    },
    {
      "mesh": 3,
      "name": "Object_9"
    },
    {
      "mesh": 4,
      "name": "Object_10"
    }
  ],
  "samplers": [
    {
      "magFilter": 9729,
      "minFilter": 9987,
      "wrapS": 10497,
      "wrapT": 10497
    }
  ],
  "scene": 0,
  "scenes": [
    {
      "name": "Sketchfab_Scene",
      "nodes": [
        0
      ]
    }
  ],
  "textures": [
    {
      "sampler": 0,
      "source": 0
    },
    {
      "sampler": 0,
      "source": 1
    },
    {
      "sampler": 0,
      "source": 2
    },
    {
      "sampler": 0,
      "source": 3
    },
    {
      "sampler": 0,
      "source": 4
    }
  ]
}
