{
  "accessors": [
    {
      "bufferView": 2,
      "componentType": 5126,
      "count": 21789,
      "max": [
        0.9885860681533813,
        0.8656688332557678,
        0.9916459918022156
      ],
      "min": [
        -1.3285620212554932,
        0.3086768388748169,
        -1.3189899921417236
      ],
      "type": "VEC3"
    },
    {
      "bufferView": 2,
      "byteOffset": 261468,
      "componentType": 5126,
      "count": 21789,
      "max": [
        0.9999989867210388,
        0.9999999403953552,
        1.0
      ],
      "min": [
        -1.0,
        -1.0,
        -1.0
      ],
      "type": "VEC3"
    },
    {
      "bufferView": 3,
      "componentType": 5126,
      "count": 21789,
      "max": [
        1.0,
        0.9999915361404419,
        0.9999989867210388,
        1.0
      ],
      "min": [
        -1.0,
        -0.9999989867210388,
        -0.9999997615814209,
        -1.0
      ],
      "type": "VEC4"
    },
    {
      "bufferView": 1,
      "componentType": 5126,
      "count": 21789,
      "max": [
        0.9806889891624451,
        0.9964370131492615
      ],
      "min": [
        0.006558999884873629,
        0.009517014026641846
      ],
      "type": "VEC2"
    },
    {
      "bufferView": 1,
      "byteOffset": 174312,
      "componentType": 5126,
      "count": 21789,
      "max": [
        0.9806889891624451,
        0.9964370131492615
      ],
      "min": [
        0.006558999884873629,
        0.009517014026641846
      ],
      "type": "VEC2"
    },
    {
      "bufferView": 1,
      "byteOffset": 348624,
      "componentType": 5126,
      "count": 21789,
      "max": [
        0.9806889891624451,
        0.9964370131492615
      ],
      "min": [
        0.006558999884873629,
        0.009517014026641846
      ],
      "type": "VEC2"
    },
    {
      "bufferView": 1,
      "byteOffset": 522936,
      "componentType": 5126,
      "count": 21789,
      "max": [
        0.9806889891624451,
        0.9964370131492615
      ],
      "min": [
        0.006558999884873629,
        0.009517014026641846
      ],
      "type": "VEC2"
    },
    {
      "bufferView": 1,
      "byteOffset": 697248,
      "componentType": 5126,
      "count": 21789,
      "max": [
        0.9806889891624451,
        0.9964370131492615
      ],
      "min": [
        0.006558999884873629,
        0.009517014026641846
      ],
      "type": "VEC2"
    },
    {
      "bufferView": 0,
      "componentType": 5125,
      "count": 121092,
      "type": "SCALAR"
    },
    {
      "bufferView": 2,
      "byteOffset": 522936,
      "componentType": 5126,
      "count": 18765,
      "max": [
        1.3738739490509033,
        0.7631778120994568,
        1.375
      ],
      "min": [
        -1.37521493434906,
        0.017147846519947052,
        -1.371917963027954
      ],
      "type": "VEC3"
    },
    {
      "bufferView": 2,
      "byteOffset": 748116,
      "componentType": 5126,
      "count": 18765,
      "max": [
        1.0,
        1.0,
        1.0
      ],
      "min": [
        -1.0,
        -1.0,
        -1.0
      ],
      "type": "VEC3"
    },
    {
      "bufferView": 3,
      "byteOffset": 348624,
      "componentType": 5126,
      "count": 18765,
      "max": [
        1.0,
        1.0,
        1.0,
        1.0
      ],
      "min": [
        -1.0,
        -1.0,
        -1.0,
        -1.0
      ],
      "type": "VEC4"
    },
    {
      "bufferView": 1,
      "byteOffset": 871560,
      "componentType": 5126,
      "count": 18765,
      "max": [
        0.9883210062980652,
        0.9960939884185791
      ],
      "min": [
        0.009933000430464745,
        0.0031470060348510742
      ],
      "type": "VEC2"
    },
    {
      "bufferView": 1,
      "byteOffset": 1021680,
      "componentType": 5126,
      "count": 18765,
      "max": [
        0.9883210062980652,
        0.9960939884185791
      ],
      "min": [
        0.009933000430464745,
        0.0031470060348510742
      ],
      "type": "VEC2"
    },
    {
      "bufferView": 1,
      "byteOffset": 1171800,
      "componentType": 5126,
      "count": 18765,
      "max": [
        0.9883210062980652,
        0.9960939884185791
      ],
      "min": [
        0.009933000430464745,
        0.0031470060348510742
      ],
      "type": "VEC2"
    },
    {
      "bufferView": 1,
      "byteOffset": 1321920,
      "componentType": 5126,
      "count": 18765,
      "max": [
        0.9883210062980652,
        0.9960939884185791
      ],
      "min": [
        0.009933000430464745,
        0.0031470060348510742
      ],
      "type": "VEC2"
    },
    {
      "bufferView": 1,
      "byteOffset": 1472040,
      "componentType": 5126,
      "count": 18765,
      "max": [
        0.9883210062980652,
        0.9960939884185791
      ],
      "min": [
        0.009933000430464745,
        0.0031470060348510742
      ],
      "type": "VEC2"
    },
    {
      "bufferView": 0,
      "byteOffset": 484368,
      "componentType": 5125,
      "count": 80460,
      "type": "SCALAR"
    },
    {
      "bufferView": 2,
      "byteOffset": 973296,
      "componentType": 5126,
      "count": 1987,
      "max": [
        0.5895919799804688,
        0.46816784143447876,
        1.1340670585632324
      ],
      "min": [
        -0.11135599762201309,
        0.44314783811569214,
        -0.26557499170303345
      ],
      "type": "VEC3"
    },
    {
      "bufferView": 2,
      "byteOffset": 997140,
      "componentType": 5126,
      "count": 1987,
      "max": [
        1.0,
        1.0,
        0.9992602467536926
      ],
      "min": [
        -1.0,
        -1.0,
        -0.9992598295211792
      ],
      "type": "VEC3"
    },
    {
      "bufferView": 3,
      "byteOffset": 648864,
      "componentType": 5126,
      "count": 1987,
      "max": [
        1.0,
        1.0,
        0.43271395564079285,
        -1.0
      ],
      "min": [
        -0.5634670853614807,
        -0.4243100881576538,
        -0.4329274594783783,
        -1.0
      ],
      "type": "VEC4"
    },
    {
      "bufferView": 1,
      "byteOffset": 1622160,
      "componentType": 5126,
      "count": 1987,
      "max": [
        0.9902340173721313,
        0.9902340173721313
      ],
      "min": [
        0.00976600032299757,
        0.4138380289077759
      ],
      "type": "VEC2"
    },
    {
      "bufferView": 1,
      "byteOffset": 1638056,
      "componentType": 5126,
      "count": 1987,
      "max": [
        0.9902340173721313,
        0.9902340173721313
      ],
      "min": [
        0.00976600032299757,
        0.4138380289077759
      ],
      "type": "VEC2"
    },
    {
      "bufferView": 1,
      "byteOffset": 1653952,
      "componentType": 5126,
      "count": 1987,
      "max": [
        0.9902340173721313,
        0.9902340173721313
      ],
      "min": [
        0.00976600032299757,
        0.4138380289077759
      ],
      "type": "VEC2"
    },
    {
      "bufferView": 1,
      "byteOffset": 1669848,
      "componentType": 5126,
      "count": 1987,
      "max": [
        0.9902340173721313,
        0.9902340173721313
      ],
      "min": [
        0.00976600032299757,
        0.4138380289077759
      ],
      "type": "VEC2"
    },
    {
      "bufferView": 1,
      "byteOffset": 1685744,
      "componentType": 5126,
      "count": 1987,
      "max": [
        0.9902340173721313,
        0.9902340173721313
      ],
      "min": [
        0.00976600032299757,
        0.4138380289077759
      ],
      "type": "VEC2"
    },
    {
      "bufferView": 0,
      "byteOffset": 806208,
      "componentType": 5125,
      "count": 5556,
      "type": "SCALAR"
    }
  ],
  "asset": {
    "extras": {
      "author": "3DImaginationHub (https://sketchfab.com/3DImaginationHub)",
      "license": "SKETCHFAB Standard (https://sketchfab.com/licenses)",
      "source": "https://sketchfab.com/3d-models/skagenas-corner-group-376d50249ab74e19b3c893d2f35663b4",
      "title": "Skagenas corner group"
    },
    "generator": "Sketchfab-16.15.0",
    "version": "2.0"
  },
  "bufferViews": [
    {
      "buffer": 0,
      "byteLength": 828432,
      "name": "floatBufferViews",
      "target": 34963
    },
    {
      "buffer": 0,
      "byteLength": 1701640,
      "byteOffset": 828432,
      "byteStride": 8,
      "name": "floatBufferViews",
      "target": 34962
    },
    {
      "buffer": 0,
      "byteLength": 1020984,
      "byteOffset": 2530072,
      "byteStride": 12,
      "name": "floatBufferViews",
      "target": 34962
    },
    {
      "buffer": 0,
      "byteLength": 680656,
      "byteOffset": 3551056,
      "byteStride": 16,
      "name": "floatBufferViews",
      "target": 34962
    }
  ],
  "buffers": [
    {
      "byteLength": 4231712,
      "uri": "scene.bin"
    }
  ],
  "extensionsUsed": [
    "KHR_texture_transform"
  ],
  "images": [
    {
      "uri": "textures/296-Skagenas-horngrupp-fabric.004_baseColor.jpeg"
    },
    {
      "uri": "textures/296-Skagenas-horngrupp-fabric.004_metallicRoughness.png"
    },
    {
      "uri": "textures/296-Skagenas-horngrupp-fabric.004_normal.jpeg"
    },
    {
      "uri": "textures/296-Skagenas-horngrupp-others.004_baseColor.jpeg"
    },
    {
      "uri": "textures/296-Skagenas-horngrupp-others.004_metallicRoughness.png"
    },
    {
      "uri": "textures/296-Skagenas-horngrupp-others.004_normal.jpeg"
    },
    {
      "uri": "textures/296-Skagenas-horngrupp-wood.004_baseColor.jpeg"
    },
    {
      "uri": "textures/296-Skagenas-horngrupp-wood.004_metallicRoughness.png"
    },
    {
      "uri": "textures/296-Skagenas-horngrupp-wood.004_normal.jpeg"
    }
  ],
  "materials": [
    {
      "name": "296-Skagenas-horngrupp-fabric.004",
      "normalTexture": {
        "extensions": {
          "KHR_texture_transform": {
            "offset": [
              0,
              -19
            ],
            "scale": [
              20,
              20
            ]
          }
        },
        "index": 2
      },
      "occlusionTexture": {
        "index": 1,
        "texCoord": 1
      },
      "pbrMetallicRoughness": {
        "baseColorTexture": {
          "extensions": {
            "KHR_texture_transform": {
              "offset": [
                0,
                -19
              ],
              "scale": [
                20,
                20
              ]
            }
          },
          "index": 0
        },
        "metallicRoughnessTexture": {
          "index": 1
        }
      }
    },
    {
      "name": "296-Skagenas-horngrupp-others.004",
      "normalTexture": {
        "index": 5,
        "texCoord": 2
      },
      "occlusionTexture": {
        "index": 4,
        "texCoord": 3
      },
      "pbrMetallicRoughness": {
        "baseColorTexture": {
          "index": 3
        },
        "metallicRoughnessTexture": {
          "index": 4,
          "texCoord": 1
        }
      }
    },
    {
      "name": "296-Skagenas-horngrupp-wood.004",
      "normalTexture": {
        "index": 8
      },
      "occlusionTexture": {
        "index": 7,
        "texCoord": 1
      },
      "pbrMetallicRoughness": {
        "baseColorTexture": {
          "index": 6
        },
        "metallicRoughnessTexture": {
          "index": 7
        }
      }
    }
  ],
  "meshes": [
    {
      "name": "Object_0",
      "primitives": [
        {
          "attributes": {
            "NORMAL": 1,
            "POSITION": 0,
            "TANGENT": 2,
            "TEXCOORD_0": 3,
            "TEXCOORD_1": 4,
            "TEXCOORD_2": 5,
            "TEXCOORD_3": 6,
            "TEXCOORD_4": 7
          },
          "indices": 8,
          "material": 0,
          "mode": 4
        }
      ]
    },
    {
      "name": "Object_1",
      "primitives": [
        {
          "attributes": {
            "NORMAL": 10,
            "POSITION": 9,
            "TANGENT": 11,
            "TEXCOORD_0": 12,
            "TEXCOORD_1": 13,
            "TEXCOORD_2": 14,
            "TEXCOORD_3": 15,
            "TEXCOORD_4": 16
          },
          "indices": 17,
          "material": 1,
          "mode": 4
        }
      ]
    },
    {
      "name": "Object_2",
      "primitives": [
        {
          "attributes": {
            "NORMAL": 19,
            "POSITION": 18,
            "TANGENT": 20,
            "TEXCOORD_0": 21,
            "TEXCOORD_1": 22,
            "TEXCOORD_2": 23,
            "TEXCOORD_3": 24,
            "TEXCOORD_4": 25
          },
          "indices": 26,
          "material": 2,
          "mode": 4
        }
      ]
    }
  ],
  "nodes": [
    {
      "children": [
        1
      ],
      "matrix": [
        1.0,
        0.0,
        0.0,
        0.0,
        0.0,
        2.220446049250313e-16,
        -1.0,
        0.0,
        0.0,
        1.0,
        2.220446049250313e-16,
        0.0,
        0.0,
        0.0,
        0.0,
        1.0
      ],
      "name": "Sketchfab_model"
    },
    {
      "children": [
        2
      ],
      "name": "root"
    },
    {
      "children": [
        3,
        5,
        7
      ],
      "matrix": [
        1.0,
        0.0,
        0.0,
        0.0,
        0.0,
        2.220446049250313e-16,
        1.0,
        0.0,
        0.0,
        -1.0,
        2.220446049250313e-16,
        0.0,
        0.0,
        0.0,
        0.0,
        1.0
      ],
      "name": "GLTF_SceneRootNode"
    },
    {
      "children": [
        4
      ],
      "name": "Skagenas_horngrupp fabric.003_0"
    },
    {
      "mesh": 0,
      "name": "Object_4"
    },
    {
      "children": [
        6
      ],
      "name": "Skagenas_horngrupp others.004_1"
    },
    {
      "mesh": 1,
      "name": "Object_6"
    },
    {
      "children": [
        8
      ],
      "name": "wood Skagenas_horngrupp.003_2"
    },
    {
      "mesh": 2,
      "name": "Object_8"
    }
  ],
  "samplers": [
    {
      "magFilter": 9729,
      "minFilter": 9987,
      "wrapS": 10497,
      "wrapT": 10497
    }
  ],
  "scene": 0,
  "scenes": [
    {
      "name": "Sketchfab_Scene",
      "nodes": [
        0
      ]
    }
  ],
  "textures": [
    {
      "sampler": 0,
      "source": 0
    },
    {
      "sampler": 0,
      "source": 1
    },
    {
      "sampler": 0,
      "source": 2
    },
    {
      "sampler": 0,
      "source": 3
    },
    {
      "sampler": 0,
      "source": 4
    },
    {
      "sampler": 0,
      "source": 5
    },
    {
      "sampler": 0,
      "source": 6
    },
    {
      "sampler": 0,
      "source": 7
    },
    {
      "sampler": 0,
      "source": 8
    }
  ]
}
