{
  "accessors": [
    {
      "bufferView": 2,
      "componentType": 5126,
      "count": 5015,
      "max": [
        0.07712549716234207,
        0.1677979975938797,
        0.09434880316257477
      ],
      "min": [
        -0.08957420289516449,
        -0.20532600581645966,
        -0.1039080023765564
      ],
      "type": "VEC3"
    },
    {
      "bufferView": 2,
      "byteOffset": 60180,
      "componentType": 5126,
      "count": 5015,
      "max": [
        0.9999150633811951,
        0.9994611740112305,
        0.999978244304657
      ],
      "min": [
        -0.9999285936355591,
        -1.0,
        -0.9996873736381531
      ],
      "type": "VEC3"
    },
    {
      "bufferView": 1,
      "componentType": 5126,
      "count": 5015,
      "max": [
        0.9954760670661926,
        0.9916795492172241
      ],
      "min": [
        0.00776833388954401,
        0.005761332809925079
      ],
      "type": "VEC2"
    },
    {
      "bufferView": 1,
      "byteOffset": 40120,
      "componentType": 5126,
      "count": 5015,
      "max": [
        0.9954760670661926,
        0.9916795492172241
      ],
      "min": [
        0.00776833388954401,
        0.005761332809925079
      ],
      "type": "VEC2"
    },
    {
      "bufferView": 0,
      "componentType": 5125,
      "count": 26604,
      "type": "SCALAR"
    }
  ],
  "asset": {
    "extras": {
      "author": "Scanned World (https://sketchfab.com/scannedworld)",
      "license": "CC-BY-4.0 (http://creativecommons.org/licenses/by/4.0/)",
      "source": "https://sketchfab.com/3d-models/home-decor-owl-3d-scan-73e71beacf4f4e68ba76eb73155ee845",
      "title": "Home decor owl - 3D Scan"
    },
    "generator": "Sketchfab-15.19.0",
    "version": "2.0"
  },
  "bufferViews": [
    {
      "buffer": 0,
      "byteLength": 106416,
      "name": "floatBufferViews",
      "target": 34963
    },
    {
      "buffer": 0,
      "byteLength": 80240,
      "byteOffset": 106416,
      "byteStride": 8,
      "name": "floatBufferViews",
      "target": 34962
    },
    {
      "buffer": 0,
      "byteLength": 120360,
      "byteOffset": 186656,
      "byteStride": 12,
      "name": "floatBufferViews",
      "target": 34962
    }
  ],
  "buffers": [
    {
      "byteLength": 307016,
      "uri": "scene.bin"
    }
  ],
  "extensionsUsed": [
    "KHR_materials_unlit"
  ],
  "images": [
    {
      "uri": "textures/Default_OBJ.002_baseColor.png"
    }
  ],
  "materials": [
    {
      "doubleSided": true,
      "extensions": {
        "KHR_materials_unlit": {}
      },
      "name": "Default_OBJ.002",
      "pbrMetallicRoughness": {
        "baseColorTexture": {
          "index": 0
        },
        "metallicFactor": 0.0
      }
    }
  ],
  "meshes": [
    {
      "name": "instant.002_Default OBJ.002_0",
      "primitives": [
        {
          "attributes": {
            "NORMAL": 1,
            "POSITION": 0,
            "TEXCOORD_0": 2,
            "TEXCOORD_1": 3
          },
          "indices": 4,
          "material": 0,
          "mode": 4
        }
      ]
    }
  ],
  "nodes": [
    {
      "children": [
        1
      ],
      "matrix": [
        1.7848297357559204,
        -3.6617381217080193e-16,
        -0.9024315476417542,
        0.0,
        0.9024315476417542,
        -3.9631181353437127e-16,
        1.7848297357559204,
        0.0,
        -5.056011130565843e-16,
        -2.0,
        -1.8845114588802775e-16,
        0.0,
        0.0,
        0.0,
        0.0,
        1.0
      ],
      "name": "Sketchfab_model"
    },
    {
      "children": [
        2
      ],
      "matrix": [
        0.009999999776482582,
        0.0,
        0.0,
        0.0,
        0.0,
        -0.009999999776482582,
        0.0,
        0.0,
        0.0,
        0.0,
        -0.009999999776482582,
        0.0,
        0.0,
        0.0,
        0.0,
        1.0
      ],
      "name": "e0d23a3c8fef4402a5ea6d4ceefed1e7.fbx"
    },
    {
      "children": [
        3
      ],
      "name": "RootNode"
    },
    {
      "children": [
        4
      ],
      "matrix": [
        100.0,
        0.0,
        0.0,
        0.0,
        0.0,
        -1.629206793918314e-05,
        99.99999999999868,
        0.0,
        0.0,
        -99.99999999999868,
        -1.629206793918314e-05,
        0.0,
        0.0,
        0.0,
        0.0,
        1.0
      ],
      "name": "instant.002"
    },
    {
      "mesh": 0,
      "name": "instant.002_Default OBJ.002_0"
    }
  ],
  "samplers": [
    {
      "magFilter": 9729,
      "minFilter": 9987,
      "wrapS": 10497,
      "wrapT": 10497
    }
  ],
  "scene": 0,
  "scenes": [
    {
      "name": "Sketchfab_Scene",
      "nodes": [
        0
      ]
    }
  ],
  "textures": [
    {
      "sampler": 0,
      "source": 0
    }
  ]
}
