{
  "accessors": [
    {
      "bufferView": 2,
      "componentType": 5126,
      "count": 1080,
      "max": [
        0.7431633472442627,
        0.48463886976242065,
        0.36618945002555847
      ],
      "min": [
        -0.7431621551513672,
        -2.180039882659912e-05,
        -0.36619237065315247
      ],
      "type": "VEC3"
    },
    {
      "bufferView": 2,
      "byteOffset": 12960,
      "componentType": 5126,
      "count": 1080,
      "max": [
        1.0,
        1.0,
        1.0
      ],
      "min": [
        -1.0,
        -1.0,
        -1.0
      ],
      "type": "VEC3"
    },
    {
      "bufferView": 3,
      "componentType": 5126,
      "count": 1080,
      "max": [
        0.7938624024391174,
        1.0,
        1.0,
        1.0
      ],
      "min": [
        -0.733753502368927,
        -1.0,
        -1.0,
        1.0
      ],
      "type": "VEC4"
    },
    {
      "bufferView": 1,
      "componentType": 5126,
      "count": 1080,
      "max": [
        0.9926888942718506,
        0.9985179901123047
      ],
      "min": [
        0.0014780163764953613,
        0.0014783143997192383
      ],
      "type": "VEC2"
    },
    {
      "bufferView": 0,
      "componentType": 5125,
      "count": 4428,
      "type": "SCALAR"
    },
    {
      "bufferView": 2,
      "byteOffset": 25920,
      "componentType": 5126,
      "count": 520,
      "max": [
        0.714087188243866,
        0.31220632791519165,
        0.33777567744255066
      ],
      "min": [
        -0.7140859365463257,
        0.08158349990844727,
        -0.33777859807014465
      ],
      "type": "VEC3"
    },
    {
      "bufferView": 2,
      "byteOffset": 32160,
      "componentType": 5126,
      "count": 520,
      "max": [
        1.0,
        1.0,
        1.0
      ],
      "min": [
        -1.0,
        -1.0,
        -1.0
      ],
      "type": "VEC3"
    },
    {
      "bufferView": 3,
      "byteOffset": 17280,
      "componentType": 5126,
      "count": 520,
      "max": [
        0.887959361076355,
        1.0,
        1.0,
        1.0
      ],
      "min": [
        -0.8875537514686584,
        -1.0,
        -1.0,
        1.0
      ],
      "type": "VEC4"
    },
    {
      "bufferView": 1,
      "byteOffset": 8640,
      "componentType": 5126,
      "count": 520,
      "max": [
        0.9985172748565674,
        0.8302897810935974
      ],
      "min": [
        0.0014824941754341125,
        0.0014783143997192383
      ],
      "type": "VEC2"
    },
    {
      "bufferView": 0,
      "byteOffset": 17712,
      "componentType": 5125,
      "count": 1872,
      "type": "SCALAR"
    }
  ],
  "asset": {
    "extras": {
      "author": "draakon_4d (https://sketchfab.com/draakon_4d)",
      "license": "CC-BY-4.0 (http://creativecommons.org/licenses/by/4.0/)",
      "source": "https://sketchfab.com/3d-models/tv-table-6fe012db3cef464e9582aed677447aa9",
      "title": "Tv table"
    },
    "generator": "Sketchfab-14.91.0",
    "version": "2.0"
  },
  "bufferViews": [
    {
      "buffer": 0,
      "byteLength": 25200,
      "name": "floatBufferViews",
      "target": 34963
    },
    {
      "buffer": 0,
      "byteLength": 12800,
      "byteOffset": 25200,
      "byteStride": 8,
      "name": "floatBufferViews",
      "target": 34962
    },
    {
      "buffer": 0,
      "byteLength": 38400,
      "byteOffset": 38000,
      "byteStride": 12,
      "name": "floatBufferViews",
      "target": 34962
    },
    {
      "buffer": 0,
      "byteLength": 25600,
      "byteOffset": 76400,
      "byteStride": 16,
      "name": "floatBufferViews",
      "target": 34962
    }
  ],
  "buffers": [
    {
      "byteLength": 102000,
      "uri": "scene.bin"
    }
  ],
  "images": [
    {
      "uri": "textures/tv_table_baseColor.png"
    },
    {
      "uri": "textures/tv_table_metallicRoughness.png"
    },
    {
      "uri": "textures/tv_table_normal.png"
    },
    {
      "uri": "textures/tv_table_draws_baseColor.png"
    },
    {
      "uri": "textures/tv_table_draws_metallicRoughness.png"
    },
    {
      "uri": "textures/tv_table_draws_normal.png"
    }
  ],
  "materials": [
    {
      "doubleSided": true,
      "name": "tv_table",
      "normalTexture": {
        "index": 2
      },
      "pbrMetallicRoughness": {
        "baseColorTexture": {
          "index": 0
        },
        "metallicRoughnessTexture": {
          "index": 1
        }
      }
    },
    {
      "doubleSided": true,
      "name": "tv_table_draws",
      "normalTexture": {
        "index": 5
      },
      "pbrMetallicRoughness": {
        "baseColorTexture": {
          "index": 3
        },
        "metallicRoughnessTexture": {
          "index": 4
        }
      }
    }
  ],
  "meshes": [
    {
      "name": "Object_0",
      "primitives": [
        {
          "attributes": {
            "NORMAL": 1,
            "POSITION": 0,
            "TANGENT": 2,
            "TEXCOORD_0": 3
          },
          "indices": 4,
          "material": 0,
          "mode": 4
        }
      ]
    },
    {
      "name": "Object_1",
      "primitives": [
        {
          "attributes": {
            "NORMAL": 6,
            "POSITION": 5,
            "TANGENT": 7,
            "TEXCOORD_0": 8
          },
          "indices": 9,
          "material": 1,
          "mode": 4
        }
      ]
    }
  ],
  "nodes": [
    {
      "children": [
        1
      ],
      "matrix": [
        1.0,
        0.0,
        0.0,
        0.0,
        0.0,
        2.220446049250313e-16,
        -1.0,
        0.0,
        0.0,
        1.0,
        2.220446049250313e-16,
        0.0,
        0.0,
        0.0,
        0.0,
        1.0
      ],
      "name": "Sketchfab_model"
    },
    {
      "children": [
        2
      ],
      "name": "root"
    },
    {
      "children": [
        3
      ],
      "matrix": [
        1.0,
        0.0,
        0.0,
        0.0,
        0.0,
        2.220446049250313e-16,
        1.0,
        0.0,
        0.0,
        -1.0,
        2.220446049250313e-16,
        0.0,
        0.0,
        0.0,
        0.0,
        1.0
      ],
      "name": "GLTF_SceneRootNode"
    },
    {
      "children": [
        4,
        5
      ],
      "name": "tv_table_0"
    },
    {
      "mesh": 0,
      "name": "Object_4"
    },
    {
      "mesh": 1,
      "name": "Object_5"
    }
  ],
  "samplers": [
    {
      "magFilter": 9729,
      "minFilter": 9987,
      "wrapS": 10497,
      "wrapT": 10497
    }
  ],
  "scene": 0,
  "scenes": [
    {
      "name": "Sketchfab_Scene",
      "nodes": [
        0
      ]
    }
  ],
  "textures": [
    {
      "sampler": 0,
      "source": 0
    },
    {
      "sampler": 0,
      "source": 1
    },
    {
      "sampler": 0,
      "source": 2
    },
    {
      "sampler": 0,
      "source": 3
    },
    {
      "sampler": 0,
      "source": 4
    },
    {
      "sampler": 0,
      "source": 5
    }
  ]
}
